# xmcd
#
# Track frame offsets:
#	150
#	12587
#	33267
#	55179
#	74026
#	91701
#	110161
#	135087
#	149945
#	167067
#	185631
#	203832
#	220833
#
# Disc length: 3132 seconds
#
# Revision: 0
# Processed by: cddbd v1.5.2PL0 Copyright (c) Steve Scherf et al.
# Submitted via: dBpowerAMP V4.0
#
DISCID=c50c3a0d
DTITLE=BRAC - Smells like blues
DYEAR=2011
DGENRE=Blues
TTITLE0=Kiss me where the sun don't shine
TTITLE1=Wired all night
TTITLE2=Smells like blues
TTITLE3=Crossroads
TTITLE4=Drinking my doubles
TTITLE5=Sunshine of your love
TTITLE6=Walk on water
TTITLE7=The blues came over me
TTITLE8=Bale of cotton
TTITLE9=Lately
TTITLE10=You're a bitch
TTITLE11=Rock and roll hoochie choo
TTITLE12=Can't get over you
EXTD=
EXTT0=
EXTT1=
EXTT2=
EXTT3=
EXTT4=
EXTT5=
EXTT6=
EXTT7=
EXTT8=
EXTT9=
EXTT10=
EXTT11=
EXTT12=
PLAYORDER=
